<?xml version="1.0" encoding="utf-8"?>
<!-- Svg Vector Icons : http://www.onlinewebfonts.com/icon -->
<!DOCTYPE svg PUBLIC "-//W3C//DTD SVG 1.1//EN" "http://www.w3.org/Graphics/SVG/1.1/DTD/svg11.dtd">
<svg version="1.1" xmlns="http://www.w3.org/2000/svg" xmlns:xlink="http://www.w3.org/1999/xlink" x="0px" y="0px" viewBox="0 0 256 256" enable-background="new 0 0 256 256" xml:space="preserve">
<metadata> Svg Vector Icons : http://www.onlinewebfonts.com/icon </metadata>
<g><g><g><path fill="#ffcc00" d="M201.1,23.6v13.6h-81.9H37.3v81.9v81.9H23.6H10l20.2,22.5C41.3,235.9,50.7,246,50.9,246s9.6-10.1,20.8-22.5l20.2-22.5H78.2H64.6v-68.2V64.6h68.2h68.2v13.6v13.6l22.5-20.2C235.9,60.6,246,51.2,246,50.9s-10.1-9.6-22.5-20.8L201.1,10V23.6z"/><path fill="#ffcc00" d="M201.1,137.4v9.1h9.1h9.1v-9.1v-9.1h-9.1h-9.1V137.4z"/><path fill="#ffcc00" d="M201.1,173.8v9.1h9.1h9.1v-9.1v-9.1h-9.1h-9.1V173.8z"/><path fill="#ffcc00" d="M128.3,210.2v9.1h9.1h9.1v-9.1v-9.1h-9.1h-9.1V210.2z"/><path fill="#ffcc00" d="M164.7,210.2v9.1h9.1h9.1v-9.1v-9.1h-9.1h-9.1L164.7,210.2L164.7,210.2z"/><path fill="#ffcc00" d="M201.1,210.2v9.1h9.1h9.1v-9.1v-9.1h-9.1h-9.1V210.2z"/></g></g></g>
</svg>